<?xml version="1.0" encoding="UTF-8" standalone="no"?>
<!-- Created with Inkscape (http://www.inkscape.org/) -->

<svg
   width="210mm"
   height="297mm"
   viewBox="0 0 210 297"
   version="1.1"
   id="svg1"
   xml:space="preserve"
   inkscape:version="1.3 (0e150ed, 2023-07-21)"
   sodipodi:docname="drawing.svg"
   xmlns:inkscape="http://www.inkscape.org/namespaces/inkscape"
   xmlns:sodipodi="http://sodipodi.sourceforge.net/DTD/sodipodi-0.dtd"
   xmlns:xlink="http://www.w3.org/1999/xlink"
   xmlns="http://www.w3.org/2000/svg"
   xmlns:svg="http://www.w3.org/2000/svg"><sodipodi:namedview
     id="namedview1"
     pagecolor="#505050"
     bordercolor="#eeeeee"
     borderopacity="1"
     inkscape:showpageshadow="0"
     inkscape:pageopacity="0"
     inkscape:pagecheckerboard="0"
     inkscape:deskcolor="#d1d1d1"
     inkscape:document-units="mm"
     inkscape:zoom="0.51196895"
     inkscape:cx="1503.9974"
     inkscape:cy="820.36224"
     inkscape:window-width="1712"
     inkscape:window-height="1070"
     inkscape:window-x="0"
     inkscape:window-y="42"
     inkscape:window-maximized="0"
     inkscape:current-layer="layer3" /><defs
     id="defs1" /><g
     inkscape:groupmode="layer"
     id="layer3"
     inkscape:label="Layer 3"><rect
       style="fill:#000055;stroke:none;stroke-width:1.51204;stroke-linecap:round;stroke-miterlimit:0;stroke-dasharray:none;stroke-opacity:1;paint-order:markers fill stroke"
       id="rect44"
       width="298.48798"
       height="298.48798"
       x="245.71275"
       y="83.018028"
       inkscape:export-filename="rect44.png"
       inkscape:export-xdpi="25.528669"
       inkscape:export-ydpi="25.528669" /></g><g
     inkscape:groupmode="layer"
     id="layer2"
     inkscape:label="Layer 2"><g
       id="g40"
       transform="translate(52.570429,-52.264218)"
       style="fill:#ff0000"><g
         id="path38"><path
           style="color:#000000;fill:#5500ff;-inkscape-stroke:none"
           d="m 363.46955,166.29962 -1.75586,0.084 c -1.91305,0.0921 -3.33697,0.17794 -4.33008,0.26172 -0.49656,0.0419 -0.88313,0.0823 -1.1836,0.12695 -0.15023,0.0223 -0.27842,0.0446 -0.40039,0.0742 -0.12196,0.0296 -0.22216,0.0367 -0.43359,0.17383 -0.22004,0.1427 -0.19105,0.1649 -0.22852,0.20898 -0.0375,0.0441 -0.0707,0.0864 -0.10742,0.13477 -0.0734,0.0967 -0.16074,0.21579 -0.26562,0.36523 -0.20978,0.29889 -0.48898,0.70983 -0.82227,1.20899 -0.66658,0.9983 -1.5468,2.34709 -2.48437,3.81054 -1.4122,2.20431 -2.16783,3.36269 -2.65821,4.07422 -0.10269,-0.19878 -0.1805,-0.34731 -0.30664,-0.59375 -0.50026,-0.97737 -1.16827,-2.29731 -1.88281,-3.72266 -1.01269,-2.02005 -1.68179,-3.32974 -2.13867,-4.16601 -0.22844,-0.41814 -0.40204,-0.71611 -0.55469,-0.94531 -0.15264,-0.22921 -0.17377,-0.40893 -0.63086,-0.61719 -0.1885,-0.0859 -0.25107,-0.0819 -0.34375,-0.0977 -0.0927,-0.0157 -0.18883,-0.0275 -0.30078,-0.0391 -0.22389,-0.0231 -0.50689,-0.0436 -0.85156,-0.0625 -0.68934,-0.0378 -1.62369,-0.069 -2.75,-0.0918 l -3.76953,-0.0762 -1.98438,0.77735 c -0.96395,0.37746 -1.57152,0.63276 -2.0332,0.94726 -0.23084,0.15725 -0.45836,0.33772 -0.60547,0.67383 -0.14711,0.33611 -0.0854,0.78654 0.0508,1.04101 0.18974,0.35452 0.32745,0.52804 0.77344,0.69922 0.323,0.12394 0.39001,0.0644 0.47851,0.0547 0.0885,-0.01 0.15862,-0.024 0.23438,-0.041 0.15151,-0.0341 0.31676,-0.0808 0.50781,-0.14063 0.3821,-0.11957 0.85931,-0.29029 1.36719,-0.49023 l 1.60937,-0.63282 h 1.95118 c 1.14394,0 2.70645,0.0377 3.39843,0.0801 l 0.84961,0.0508 2.64649,5.26758 c 0.93063,1.85136 1.67291,3.29189 2.20703,4.28906 0.26706,0.49859 0.48135,0.88468 0.64844,1.16602 0.0835,0.14067 0.15227,0.25448 0.22265,0.35547 0.0352,0.0505 0.07,0.0975 0.11914,0.15429 0.0492,0.0568 0.0645,0.12982 0.32227,0.25196 l 1.22461,-0.084 c 0.0305,-0.0154 0.0778,0.01 0.10547,-0.008 0.24101,-0.15296 0.20226,-0.17181 0.24023,-0.2168 0.038,-0.045 0.0716,-0.0886 0.10938,-0.13867 0.0755,-0.10021 0.16586,-0.22613 0.27539,-0.38281 0.21905,-0.31336 0.51099,-0.74558 0.86132,-1.27148 0.70067,-1.05182 1.62935,-2.47544 2.61915,-4.02149 l 3.37304,-5.26758 0.22656,-0.0273 c 0.19897,-0.0238 1.85265,-0.13053 3.4043,-0.20508 l 2.7168,-0.13086 2.93164,0.67383 c 0.84672,0.19461 1.63897,0.36271 2.24219,0.47852 0.30161,0.0579 0.55572,0.10327 0.75586,0.13281 0.10007,0.0148 0.18333,0.0242 0.26953,0.0312 0.0431,0.004 0.0855,0.006 0.14453,0.006 0.059,-6e-4 0.10727,0.0272 0.33594,-0.0606 0.38853,-0.14909 0.73423,-0.47727 0.85546,-0.90625 0.12124,-0.42898 -0.0111,-0.90684 -0.2832,-1.23242 -0.36916,-0.4417 -0.68329,-0.46861 -1.22461,-0.62695 -0.54131,-0.15835 -1.33172,-0.34737 -2.54687,-0.625 z"
           id="path43"
           sodipodi:nodetypes="ccssssssssscsssssccscccsssscccccscccsssscccscsscccccsssccsssscc" /><path
           style="color:#000000;fill:#00ff55;-inkscape-stroke:none"
           d="m 366.66602,169.49609 -1.75586,0.084 c -1.91305,0.0921 -3.33697,0.17794 -4.33008,0.26172 -0.49656,0.0419 -0.88313,0.0823 -1.1836,0.12695 -0.15023,0.0223 -0.27842,0.0446 -0.40039,0.0742 -0.12196,0.0296 -0.22216,0.0367 -0.43359,0.17383 -0.22004,0.1427 -0.19105,0.1649 -0.22852,0.20898 -0.0375,0.0441 -0.0707,0.0864 -0.10742,0.13477 -0.0734,0.0967 -0.16074,0.21579 -0.26562,0.36523 -0.20978,0.29889 -0.48898,0.70983 -0.82227,1.20899 -0.66658,0.9983 -1.5468,2.34709 -2.48437,3.81054 -1.4122,2.20431 -2.16783,3.36269 -2.65821,4.07422 -0.10269,-0.19878 -0.1805,-0.34731 -0.30664,-0.59375 -0.50026,-0.97737 -1.16827,-2.29731 -1.88281,-3.72266 -1.01269,-2.02005 -1.68179,-3.32974 -2.13867,-4.16601 -0.22844,-0.41814 -0.40204,-0.71611 -0.55469,-0.94531 -0.15264,-0.22921 -0.17377,-0.40893 -0.63086,-0.61719 -0.1885,-0.0859 -0.25107,-0.0819 -0.34375,-0.0977 -0.0927,-0.0157 -0.18883,-0.0275 -0.30078,-0.0391 -0.22389,-0.0231 -0.50689,-0.0436 -0.85156,-0.0625 -0.68934,-0.0378 -1.62369,-0.069 -2.75,-0.0918 l -3.76953,-0.0762 -1.98438,0.77735 c -0.96395,0.37746 -1.57152,0.63276 -2.0332,0.94726 -0.23084,0.15725 -0.45836,0.33772 -0.60547,0.67383 -0.14711,0.33611 -0.0854,0.78654 0.0508,1.04101 0.18974,0.35452 0.32745,0.52804 0.77344,0.69922 0.323,0.12394 0.39001,0.0644 0.47851,0.0547 0.0885,-0.01 0.15862,-0.024 0.23438,-0.041 0.15151,-0.0341 0.31676,-0.0808 0.50781,-0.14063 0.3821,-0.11957 0.85931,-0.29029 1.36719,-0.49023 l 1.60937,-0.63282 h 1.95118 c 1.14394,0 2.70645,0.0377 3.39843,0.0801 l 0.84961,0.0508 2.64649,5.26758 c 0.93063,1.85136 1.67291,3.29189 2.20703,4.28906 0.26706,0.49859 0.48135,0.88468 0.64844,1.16602 0.0835,0.14067 0.15227,0.25448 0.22265,0.35547 0.0352,0.0505 0.07,0.0975 0.11914,0.15429 0.0492,0.0568 0.0645,0.12982 0.32227,0.25196 l 1.22461,-0.084 c 0.0305,-0.0154 0.0778,0.01 0.10547,-0.008 0.24101,-0.15296 0.20226,-0.17181 0.24023,-0.2168 0.038,-0.045 0.0716,-0.0886 0.10938,-0.13867 0.0755,-0.10021 0.16586,-0.22613 0.27539,-0.38281 0.21905,-0.31336 0.51099,-0.74558 0.86132,-1.27148 0.70067,-1.05182 1.62935,-2.47544 2.61915,-4.02149 l 3.37304,-5.26758 0.22656,-0.0273 c 0.19897,-0.0238 1.85265,-0.13053 3.4043,-0.20508 l 2.7168,-0.13086 2.93164,0.67383 c 0.84672,0.19461 1.63897,0.36271 2.24219,0.47852 0.30161,0.0579 0.55572,0.10327 0.75586,0.13281 0.10007,0.0148 0.18333,0.0242 0.26953,0.0312 0.0431,0.004 0.0855,0.006 0.14453,0.006 0.059,-6e-4 0.10727,0.0272 0.33594,-0.0606 0.38853,-0.14909 0.73423,-0.47727 0.85546,-0.90625 0.12124,-0.42898 -0.0111,-0.90684 -0.2832,-1.23242 -0.36916,-0.4417 -0.68329,-0.46861 -1.22461,-0.62695 -0.54131,-0.15835 -1.33172,-0.34737 -2.54687,-0.625 z"
           id="path42"
           sodipodi:nodetypes="ccssssssssscsssssccscccsssscccccscccsssscccscsscccccsssccsssscc" /><path
           style="color:#000000;fill:#aa0055;-inkscape-stroke:none"
           d="m 369.81956,172.64963 -1.75586,0.084 c -1.91305,0.0921 -3.33697,0.17794 -4.33008,0.26172 -0.49656,0.0419 -0.88313,0.0823 -1.1836,0.12695 -0.15023,0.0223 -0.27842,0.0446 -0.40039,0.0742 -0.12196,0.0296 -0.22216,0.0367 -0.43359,0.17383 -0.22004,0.1427 -0.19105,0.1649 -0.22852,0.20898 -0.0375,0.0441 -0.0707,0.0864 -0.10742,0.13477 -0.0734,0.0967 -0.16074,0.21579 -0.26562,0.36523 -0.20978,0.29889 -0.48898,0.70983 -0.82227,1.20899 -0.66658,0.9983 -1.5468,2.34709 -2.48437,3.81054 -1.4122,2.20431 -2.16783,3.36269 -2.65821,4.07422 -0.10269,-0.19878 -0.1805,-0.34731 -0.30664,-0.59375 -0.50026,-0.97737 -1.16827,-2.29731 -1.88281,-3.72266 -1.01269,-2.02005 -1.68179,-3.32974 -2.13867,-4.16601 -0.22844,-0.41814 -0.40204,-0.71611 -0.55469,-0.94531 -0.15264,-0.22921 -0.17377,-0.40893 -0.63086,-0.61719 -0.1885,-0.0859 -0.25107,-0.0819 -0.34375,-0.0977 -0.0927,-0.0157 -0.18883,-0.0275 -0.30078,-0.0391 -0.22389,-0.0231 -0.50689,-0.0436 -0.85156,-0.0625 -0.68934,-0.0378 -1.62369,-0.069 -2.75,-0.0918 l -3.76953,-0.0762 -1.98438,0.77735 c -0.96395,0.37746 -1.57152,0.63276 -2.0332,0.94726 -0.23084,0.15725 -0.45836,0.33772 -0.60547,0.67383 -0.14711,0.33611 -0.0854,0.78654 0.0508,1.04101 0.18974,0.35452 0.32745,0.52804 0.77344,0.69922 0.323,0.12394 0.39001,0.0644 0.47851,0.0547 0.0885,-0.01 0.15862,-0.024 0.23438,-0.041 0.15151,-0.0341 0.31676,-0.0808 0.50781,-0.14063 0.3821,-0.11957 0.85931,-0.29029 1.36719,-0.49023 l 1.60937,-0.63282 h 1.95118 c 1.14394,0 2.70645,0.0377 3.39843,0.0801 l 0.84961,0.0508 2.64649,5.26758 c 0.93063,1.85136 1.67291,3.29189 2.20703,4.28906 0.26706,0.49859 0.48135,0.88468 0.64844,1.16602 0.0835,0.14067 0.15227,0.25448 0.22265,0.35547 0.0352,0.0505 0.07,0.0975 0.11914,0.15429 0.0492,0.0568 0.0645,0.12982 0.32227,0.25196 l 1.22461,-0.084 c 0.0305,-0.0154 0.0778,0.01 0.10547,-0.008 0.24101,-0.15296 0.20226,-0.17181 0.24023,-0.2168 0.038,-0.045 0.0716,-0.0886 0.10938,-0.13867 0.0755,-0.10021 0.16586,-0.22613 0.27539,-0.38281 0.21905,-0.31336 0.51099,-0.74558 0.86132,-1.27148 0.70067,-1.05182 1.62935,-2.47544 2.61915,-4.02149 l 3.37304,-5.26758 0.22656,-0.0273 c 0.19897,-0.0238 1.85265,-0.13053 3.4043,-0.20508 l 2.7168,-0.13086 2.93164,0.67383 c 0.84672,0.19461 1.63897,0.36271 2.24219,0.47852 0.30161,0.0579 0.55572,0.10327 0.75586,0.13281 0.10007,0.0148 0.18333,0.0242 0.26953,0.0312 0.0431,0.004 0.0855,0.006 0.14453,0.006 0.059,-6e-4 0.10727,0.0272 0.33594,-0.0606 0.38853,-0.14909 0.73423,-0.47727 0.85546,-0.90625 0.12124,-0.42898 -0.0111,-0.90684 -0.2832,-1.23242 -0.36916,-0.4417 -0.68329,-0.46861 -1.22461,-0.62695 -0.54131,-0.15835 -1.33172,-0.34737 -2.54687,-0.625 z m -7.6875,20.91602 c -0.44214,0.006 -1.04698,0.0238 -1.76368,0.0488 -1.4334,0.05 -3.31498,0.13159 -5.19922,0.22461 -1.88423,0.093 -3.77046,0.19725 -5.21093,0.28906 -0.72024,0.0459 -1.32828,0.089 -1.77539,0.12695 -0.22356,0.019 -0.40583,0.0372 -0.55078,0.0547 -0.0725,0.009 -0.13286,0.0159 -0.19727,0.0273 -0.0644,0.0114 -0.0593,-0.0364 -0.32813,0.10743 -0.32713,0.17507 -0.66321,0.49919 -0.74023,0.96289 -0.077,0.46369 0.14686,0.89295 0.41211,1.1582 0.10007,0.10007 0.19801,0.18709 0.30664,0.26562 0.0543,0.0393 0.10934,0.0762 0.1875,0.11719 0.0782,0.041 0.13777,0.11961 0.46094,0.11719 0.10272,-7.7e-4 0.0523,-5.8e-4 0.082,-0.002 0.0297,-0.001 0.0703,-0.005 0.12305,-0.008 0.10544,-0.005 0.25624,-0.0119 0.44921,-0.0215 0.38595,-0.0192 0.93864,-0.0478 1.61524,-0.082 1.3532,-0.0685 3.20549,-0.16193 5.23242,-0.26563 2.02665,-0.10368 3.87972,-0.19726 5.23242,-0.26562 0.67635,-0.0342 1.22816,-0.0629 1.61328,-0.082 0.19257,-0.01 0.34331,-0.0165 0.44727,-0.0215 0.052,-0.003 0.0921,-0.005 0.11914,-0.006 0.0271,-0.001 0.1206,-0.002 0.0117,-0.002 0.32057,-6.2e-4 0.37775,-0.0782 0.45508,-0.11914 0.0773,-0.0409 0.13154,-0.078 0.18554,-0.11719 0.10801,-0.0784 0.20685,-0.16388 0.30664,-0.26367 0.26542,-0.26541 0.48988,-0.69861 0.41016,-1.16406 -0.0797,-0.46546 -0.41573,-0.78427 -0.74219,-0.95899 -0.19132,-0.1024 -0.23564,-0.0873 -0.28515,-0.0957 -0.0495,-0.008 -0.0821,-0.0128 -0.11524,-0.0156 -0.0663,-0.006 -0.12763,-0.008 -0.19922,-0.01 -0.14316,-0.003 -0.3219,-0.003 -0.54296,0 z"
           id="path44"
           sodipodi:nodetypes="ccssssssssscsssssccscccsssscccccscccsssscccscsscccccsssccsssscccsssscsssssssccscssccscsssssccccc" /></g><path
         style="fill:#0000ff;stroke-width:1.76313"
         d="m 325.47015,396.92236 c -0.11474,-2.62465 -0.2034,-9.61235 -0.19712,-15.52824 l 0.0109,-10.75612 -9.32213,-69.99063 c -5.12715,-38.49485 -9.41303,-70.09251 -9.52416,-70.21701 -0.11112,-0.12453 -12.75368,13.19786 -28.09453,29.60525 -15.34084,16.40742 -28.11866,29.87935 -28.39511,29.93767 -0.27645,0.0582 -0.78994,-0.012 -1.14109,-0.15683 -0.45181,-0.18599 -5.2107,-9.53002 -16.27997,-31.96559 -13.52764,-27.4182 -16.44309,-33.08247 -21.57234,-41.91159 -3.97776,-6.84707 -5.89387,-10.43829 -5.81874,-10.90562 0.15637,-0.9722 5.85526,-9.65928 6.6761,-10.17659 0.58867,-0.371 0.75697,-0.35674 1.35273,0.11457 0.57497,0.45487 0.92825,1.82968 2.27946,8.87052 0.87947,4.58271 1.64661,8.53674 1.70476,8.7867 0.1227,0.52726 0.4346,-2.66881 0.72023,-7.3788 0.16215,-2.67438 0.31385,-3.39703 0.81221,-3.87006 0.69549,-0.66014 1.69392,-0.37465 2.01152,0.57517 0.0988,0.29567 -0.10568,5.63593 -0.45471,11.86724 l -0.63445,11.32967 15.04388,30.47588 c 8.27415,16.76175 15.0816,30.51881 15.12767,30.57124 0.0461,0.0524 12.83193,-13.53726 28.41301,-30.19933 15.58108,-16.66207 28.63169,-30.37423 29.00136,-30.47149 0.36968,-0.0972 22.11325,-2.01314 48.31906,-4.25751 35.265,-3.02023 47.83456,-3.99955 48.36888,-3.76846 0.58354,0.25237 3.58707,6.86425 15.66907,34.49352 l 14.94713,34.1813 14.75206,27.23239 14.75205,27.2324 7.29664,9.39269 c 4.01318,5.16597 7.5684,9.82733 7.90052,10.35857 0.59303,0.94859 0.59288,0.9763 -0.007,1.54657 -0.7645,0.72564 -4.10552,1.14788 -5.21367,0.65892 -0.48948,-0.21599 -1.48548,-1.61057 -2.81065,-3.93544 -1.46559,-2.57124 -2.28711,-3.69399 -2.87294,-3.92637 -0.66062,-0.26205 -1.38002,-1.48197 -3.69337,-6.263 -1.58011,-3.26564 -9.69977,-18.5667 -18.04368,-34.00232 l -15.17077,-28.06478 -13.39902,-30.6583 c -7.36945,-16.86206 -13.4839,-30.56477 -13.58763,-30.45048 -0.1037,0.1144 -2.44184,31.97632 -5.19577,70.80444 l -5.00717,70.59661 -0.20323,17.49766 -0.20325,17.49766 h -1.43658 -1.43656 l 0.21241,-17.13755 0.21241,-17.13757 -1.35721,0.16885 c -0.74647,0.0929 -14.5009,0.92493 -30.56542,1.84901 -16.06451,0.92407 -29.69541,1.7525 -30.29088,1.84098 l -1.08269,0.16095 0.15872,15.1277 0.15871,15.1277 h -1.34028 -1.3403 z m 36.25422,-30.34774 c 16.10537,-0.95343 29.3853,-1.83106 29.51093,-1.95032 0.17572,-0.16679 10.66894,-144.49931 10.5122,-144.59389 -0.10677,-0.0644 -92.31048,7.86669 -92.42115,7.94982 -0.0726,0.0545 4.09317,31.72707 9.25725,70.38342 l 9.38924,70.28428 2.2345,-0.16989 c 1.22898,-0.0934 15.41163,-0.94997 31.51703,-1.9034 z m 113.43026,-7.23021 c -0.55154,-0.5 -0.5601,-0.49188 -0.19455,0.18467 0.21031,0.38922 0.46991,0.62457 0.5769,0.52302 0.10696,-0.10152 -0.065,-0.42002 -0.38235,-0.70769 z M 213.41977,208.59057 c -0.90273,-4.63739 -1.76217,-8.42864 -1.90984,-8.42498 -0.24297,0.005 -2.94164,3.92128 -3.30713,4.79805 -0.12813,0.30732 6.60559,12.32789 6.7936,12.12751 0.0356,-0.038 -0.67391,-3.86319 -1.57663,-8.50058 z"
         id="path1-6"
         sodipodi:nodetypes="cccsssscssssssssssccssssssscccsscssssscssscccccccsssccccccssssscsssssssscsss" /></g></g><g
     inkscape:label="Layer 1"
     inkscape:groupmode="layer"
     id="layer1"><path
       style="fill:#aa00ff"
       d="m 107.60195,236.80723 c -0.0634,-1.52797 -0.11239,-5.59594 -0.10892,-9.03994 l 0.006,-6.2618 -5.15113,-40.74583 c -2.833114,-22.41021 -5.201363,-40.80514 -5.262771,-40.87762 -0.06141,-0.0725 -7.047296,7.68328 -15.524194,17.23503 -8.476899,9.55176 -15.537531,17.3946 -15.690295,17.42855 -0.152763,0.0339 -0.436502,-0.007 -0.630529,-0.0913 -0.249656,-0.10828 -2.879276,-5.54801 -8.995834,-18.60913 -7.474966,-15.96181 -9.085958,-19.25933 -11.920223,-24.3993 -2.197998,-3.9861 -3.256781,-6.07677 -3.215262,-6.34883 0.08637,-0.56598 3.235438,-5.62326 3.689009,-5.92442 0.325279,-0.21598 0.418276,-0.20768 0.747479,0.0667 0.317708,0.26481 0.512924,1.06517 1.259559,5.16407 0.485969,2.66788 0.909868,4.96976 0.941997,5.11528 0.06777,0.30695 0.240154,-1.55368 0.397984,-4.29565 0.08962,-1.55692 0.173421,-1.97762 0.448798,-2.253 0.384308,-0.38431 0.936014,-0.21811 1.111513,0.33484 0.05463,0.17213 -0.05843,3.28102 -0.251257,6.90865 l -0.350586,6.59569 8.312807,17.74188 c 4.572045,9.75804 8.333638,17.76687 8.359096,17.79739 0.02546,0.0305 7.090539,-7.88087 15.700179,-17.58088 8.60964,-9.70001 15.82102,-17.6827 16.025289,-17.73932 0.204268,-0.0566 12.219121,-1.17197 26.699671,-2.47856 19.48639,-1.75826 26.43195,-2.32838 26.7272,-2.19385 0.32245,0.14692 1.98211,3.9961 8.65826,20.08079 l 8.25934,19.89903 8.15155,15.85364 8.15154,15.85365 4.03191,5.46806 c 2.21756,3.00743 4.18207,5.72109 4.36559,6.03036 0.32769,0.55223 0.32761,0.56836 -0.004,0.90035 -0.42244,0.42244 -2.26859,0.66825 -2.88092,0.3836 -0.27047,-0.12574 -0.82083,-0.93761 -1.55308,-2.29106 -0.80984,-1.49688 -1.26379,-2.1505 -1.5875,-2.28578 -0.36504,-0.15256 -0.76256,-0.86275 -2.04085,-3.64608 -0.87312,-1.90113 -5.3598,-10.80881 -9.9704,-19.79483 l -8.38291,-16.33823 -7.4039,-17.84807 c -4.07214,-9.81644 -7.4508,-17.79363 -7.50812,-17.72709 -0.0573,0.0666 -1.34929,18.61537 -2.87103,41.2196 l -2.76681,41.09861 -0.1123,10.18646 -0.11231,10.18646 h -0.79381 -0.7938 l 0.11737,-9.97682 0.11737,-9.97683 -0.74995,0.0983 c -0.41248,0.0541 -8.01277,0.53846 -16.88954,1.07642 -8.87677,0.53796 -16.4088,1.02024 -16.73784,1.07175 l -0.59826,0.0937 0.0877,8.80676 0.0877,8.80676 h -0.7406 -0.74061 z m 20.033,-17.66728 c 8.89935,-0.55505 16.23744,-1.06597 16.30686,-1.1354 0.0971,-0.0971 5.89534,-84.1219 5.80873,-84.17696 -0.059,-0.0375 -51.008024,4.57968 -51.069171,4.62808 -0.04011,0.0317 2.261761,18.47027 5.115281,40.9745 l 5.18821,40.91678 1.23472,-0.0989 c 0.6791,-0.0544 8.51601,-0.55304 17.41537,-1.10809 z m 62.67818,-4.20915 c -0.30476,-0.29108 -0.30949,-0.28635 -0.1075,0.10751 0.11621,0.22659 0.25966,0.3636 0.31878,0.30448 0.0591,-0.0591 -0.0359,-0.24452 -0.21128,-0.41199 z M 45.68625,127.16776 c -0.498823,-2.69971 -0.973716,-4.90683 -1.055319,-4.9047 -0.134257,0.003 -1.625458,2.28282 -1.827422,2.79324 -0.07079,0.17891 3.650053,7.17682 3.753944,7.06017 0.01966,-0.0221 -0.372379,-2.249 -0.871203,-4.94871 z m 73.45869,-16.50496 c -0.29697,-0.29697 -0.33973,-0.45119 -0.19834,-0.71538 0.0991,-0.18523 0.31923,-0.37665 0.48911,-0.42537 0.16988,-0.0487 2.22392,-0.14327 4.56454,-0.2101 4.19709,-0.11984 4.26088,-0.1163 4.63425,0.25707 0.29696,0.29697 0.33972,0.45119 0.19834,0.71538 -0.0991,0.18523 -0.31924,0.37665 -0.48912,0.42537 -0.16987,0.0487 -2.22391,0.14327 -4.56453,0.2101 -4.1971,0.11984 -4.26088,0.1163 -4.63425,-0.25707 z m 5.18575,-5.68937 c -0.20393,-0.097 -0.97538,-1.36364 -1.82838,-3.00193 l -1.47561,-2.83406 -0.79797,0.109374 c -0.43889,0.06016 -1.40205,0.110433 -2.14037,0.111728 l -1.34239,0.0024 -1.6757,1.553114 c -0.92163,0.85422 -1.8164,1.60542 -1.98837,1.66934 -0.41893,0.15572 -1.01311,-0.44405 -0.8934,-0.90181 0.0499,-0.19066 0.92987,-1.12706 1.95558,-2.080875 l 1.86493,-1.734213 2.66153,-0.131204 c 2.77169,-0.136634 3.52821,-0.02723 3.7166,0.537479 0.0532,0.159341 0.60003,1.23072 1.21527,2.380843 l 1.11863,2.09113 1.29092,-2.2396 c 0.71001,-1.231772 1.47309,-2.358947 1.69573,-2.504828 0.3456,-0.22645 0.59259,-0.234063 1.6889,-0.05206 1.75313,0.291039 2.13619,0.481561 3.69078,1.835636 1.47682,1.286335 1.71121,1.716265 1.20929,2.218175 -0.45122,0.45122 -0.82284,0.30711 -2.1157,-0.82042 -1.53354,-1.337456 -1.72654,-1.444707 -2.82669,-1.570808 l -0.96664,-0.110798 -1.4993,2.598986 c -1.57174,2.72454 -1.95872,3.15946 -2.55764,2.87445 z"
       id="path1" /><image
       width="277.28333"
       height="168.62778"
       preserveAspectRatio="none"
       style="image-rendering:optimizeQuality"
       xlink:href="../../../../Desktop/Capture%20d%E2%80%99e%CC%81cran%202024-10-22%20a%CC%80%2021.00.08.png"
       id="image1-9"
       x="149.31133"
       y="-305.96118" /><g
       id="g36"
       transform="translate(22.016878,220.89063)" /><image
       width="328.08334"
       height="184.14999"
       preserveAspectRatio="none"
       style="fill:#ff0000;image-rendering:optimizeQuality"
       xlink:href="../../../../Desktop/Capture%20d%E2%80%99e%CC%81cran%202024-10-22%20a%CC%80%2020.56.47.png"
       id="image1"
       x="-358.24719"
       y="-195.04251" /></g></svg>
