<?xml version="1.0" encoding="UTF-8"?>
<svg id="circles" xmlns="http://www.w3.org/2000/svg" viewBox="0 0 1056 672">
  <defs>
    <style>
      .cls-1, .cls-2, .cls-3 {
        fill: #231f20;
      }

      .cls-2 {
        font-size: 114px;
      }

      .cls-2, .cls-3 {
        font-family: DarkmodeMonoOffHebr-SemiBold, 'Darkmode Mono Off Hebr';
        font-weight: 600;
      }

      .cls-4 {
        fill: none;
        stroke: #231f20;
        stroke-linecap: round;
        stroke-miterlimit: 10;
        stroke-width: 15px;
      }

      .cls-3 {
        font-size: 122px;
      }
    </style>
  </defs>
  <text class="cls-3" transform="translate(113.34 332.13) rotate(-61.03)"><tspan x="0" y="0">p</tspan></text>
  <text class="cls-3" transform="translate(192.18 235.95) rotate(-35.36)"><tspan x="0" y="0">r</tspan></text>
  <text class="cls-3" transform="translate(304.21 164.29) rotate(-22.19)"><tspan x="0" y="0">e</tspan></text>
  <text class="cls-3" transform="translate(429.42 122.58) rotate(-6.94)"><tspan x="0" y="0">m</tspan></text>
  <text class="cls-3" transform="translate(560.84 114.79) rotate(8.79)"><tspan x="0" y="0">i</tspan></text>
  <text class="cls-3" transform="translate(690.39 141.87) rotate(23.23)"><tspan x="0" y="0">è</tspan></text>
  <text class="cls-3" transform="translate(810.44 200.59) rotate(34.43)"><tspan x="0" y="0">r</tspan></text>
  <text class="cls-3" transform="translate(916.82 270.81) rotate(59.41)"><tspan x="0" y="0">e</tspan></text>
  <text class="cls-2" transform="translate(85.99 434.9) rotate(40.98)"><tspan x="0" y="0">i</tspan></text>
  <text class="cls-2" transform="translate(163.75 500.12) rotate(34.04)"><tspan x="0" y="0">m</tspan></text>
  <text class="cls-2" transform="translate(250.23 555.77) rotate(25.51)"><tspan x="0" y="0">p</tspan></text>
  <text class="cls-2" transform="translate(345.53 597.89) rotate(15.42)"><tspan x="0" y="0">r</tspan></text>
  <text class="cls-2" transform="translate(447.69 621.81) rotate(4.49)"><tspan x="0" y="0">e</tspan></text>
  <text class="cls-2" transform="translate(552.35 626.51) rotate(-6.25)"><tspan x="0" y="0">s</tspan></text>
  <text class="cls-2" transform="translate(655.57 612.52) rotate(-16.31)"><tspan x="0" y="0">s</tspan></text>
  <text class="cls-2" transform="translate(753.55 580.91) rotate(-25.02)"><tspan x="0" y="0">i</tspan></text>
  <text class="cls-2" transform="translate(844.91 535.68) rotate(-32.56)"><tspan x="0" y="0">o</tspan></text>
  <text class="cls-2" transform="translate(929.32 479.38) rotate(-39.54)"><tspan x="0" y="0">n</tspan></text>
  <path class="cls-4" d="M523.86,327.55s4.02,23.18,27.2,26.74c23.18,3.57,63.81-29.61,32.09-70.1-17.84-22.77-40.48-23.81-56.19-19.76-30.52,7.88-53.87,33-56.08,64.45-1.34,19.08,3.67,42.45,24.91,66.42,0,0,21.4,29.91,67.75,32.09,22.67,1.07,42.62-8.77,58.96-21.97,59.63-48.18,50-143.45-3.47-184.6-9.11-7.01-19.18-15.24-32.31-19.87-141.65-49.92-195.15,77.94-196.13,83.23,0,0-46.95,112.5,76.67,180.31,0,0,31.92,21.02,92.39,30.2"/>
  <ellipse class="cls-1" cx="50.59" cy="370.24" rx="14.41" ry="14.36"/>
  <ellipse class="cls-1" cx="1000.62" cy="370.24" rx="14.41" ry="14.36"/>
</svg>
